<?xml version="1.0" encoding="utf-8"?>
<svg version="1.1" id="レイヤー_1" x="0px" y="0px" viewBox="-875.685 -51.279 2654.592 491.558" style="enable-background:new 0 0 919 389;" xmlns="http://www.w3.org/2000/svg">
  <style type="text/css">
	.st0{fill:#DC2D2E;}
	.st1{fill:#2B4F99;}
	.st2{fill:#FFFFFF;}
	.st3{fill:#53D3D0;}
	.st4{clip-path:url(#SVGID_4_);}
	.st5{clip-path:url(#SVGID_8_);}
	.st6{clip-path:url(#SVGID_12_);}
	.st7{clip-path:url(#SVGID_18_);}
	.st8{filter:url(#Adobe_OpacityMaskFilter);}
	.st9{clip-path:url(#SVGID_23_);fill:#FFFFFF;}
	.st10{mask:url(#SVGID_21_);}
	.st11{filter:url(#Adobe_OpacityMaskFilter_1_);}
	.st12{clip-path:url(#SVGID_30_);fill:#FFFFFF;}
	.st13{mask:url(#SVGID_28_);}
	.st14{filter:url(#Adobe_OpacityMaskFilter_2_);}
	.st15{clip-path:url(#SVGID_37_);fill:#FFFFFF;}
	.st16{mask:url(#SVGID_35_);}
	.st17{filter:url(#Adobe_OpacityMaskFilter_3_);}
	.st18{clip-path:url(#SVGID_44_);fill:#FFFFFF;}
	.st19{mask:url(#SVGID_42_);}
	.st20{filter:url(#Adobe_OpacityMaskFilter_4_);}
	.st21{clip-path:url(#SVGID_51_);fill:#FFFFFF;}
	.st22{mask:url(#SVGID_49_);}
	.st23{filter:url(#Adobe_OpacityMaskFilter_5_);}
	.st24{clip-path:url(#SVGID_58_);fill:#FFFFFF;}
	.st25{mask:url(#SVGID_56_);}
	.st26{filter:url(#Adobe_OpacityMaskFilter_6_);}
	.st27{clip-path:url(#SVGID_65_);fill:#FFFFFF;}
	.st28{mask:url(#SVGID_63_);}
	.st29{filter:url(#Adobe_OpacityMaskFilter_7_);}
	.st30{clip-path:url(#SVGID_72_);fill:#FFFFFF;}
	.st31{mask:url(#SVGID_70_);}
</style>
  <g>
    <path class="st3" d="M136.66,339.66c-11,0-22.06-1.65-32.87-5c-28.3-8.75-51.49-27.99-65.32-54.18 c-28.54-54.07-7.77-121.27,46.3-149.81l129.72-68.47c26.19-13.83,56.2-16.62,84.49-7.88c28.3,8.75,51.49,27.99,65.32,54.18 c28.54,54.07,7.77,121.27-46.3,149.81l-129.72,68.47C172.1,335.33,154.46,339.66,136.66,339.66z M266.12,61.56 c-15.83,0-31.53,3.85-45.93,11.46L90.47,141.48c-48.11,25.4-66.59,85.2-41.19,133.3c25.39,48.11,85.19,66.58,133.3,41.2 l129.72-68.47c48.11-25.4,66.59-85.2,41.19-133.3C341.19,90.9,320.55,73.78,295.37,66C285.76,63.03,275.91,61.56,266.12,61.56z"/>
    <path class="st3" d="M179.87,375.5c-11,0-22.06-1.66-32.87-5c-28.3-8.75-51.49-27.99-65.32-54.18 c-13.82-26.19-16.62-56.2-7.88-84.5l43.31-140.14c8.74-28.29,27.98-51.49,54.18-65.32s56.2-16.62,84.49-7.88 c28.3,8.75,51.49,27.99,65.32,54.18c13.82,26.19,16.62,56.2,7.88,84.5l-43.31,140.14c-8.74,28.29-27.98,51.49-54.18,65.32 C215.31,371.17,197.66,375.5,179.87,375.5z M222.92,25.72c-15.83,0-31.53,3.85-45.93,11.46c-23.31,12.3-40.42,32.94-48.2,58.12 L85.47,235.44c-7.78,25.18-5.29,51.87,7.01,75.18s32.94,40.42,58.12,48.2c25.17,7.78,51.88,5.29,75.18-7.01 c23.31-12.3,40.42-32.94,48.2-58.12l43.31-140.14c7.78-25.18,5.29-51.87-7.01-75.18s-32.94-40.42-58.12-48.2 C242.55,27.2,232.71,25.72,222.92,25.72z"/>
    <path class="st3" d="M271.59,327.08c-11,0-22.06-1.66-32.87-5L98.58,278.78c-28.3-8.75-51.49-27.99-65.32-54.18 c-13.82-26.19-16.62-56.2-7.88-84.5c8.74-28.29,27.98-51.49,54.18-65.32c26.19-13.82,56.2-16.62,84.49-7.88l140.14,43.31 c28.3,8.75,51.49,27.99,65.32,54.18c13.82,26.19,16.62,56.2,7.88,84.5c-8.74,28.29-27.98,51.49-54.18,65.32 C307.03,322.75,289.39,327.08,271.59,327.08z M131.19,74.14c-15.83,0-31.53,3.85-45.93,11.46c-23.31,12.3-40.42,32.94-48.2,58.12 c-7.78,25.18-5.29,51.88,7.01,75.18s32.94,40.42,58.12,48.2l140.14,43.31c25.17,7.78,51.87,5.3,75.18-7.01 c23.31-12.3,40.42-32.94,48.2-58.12c7.78-25.18,5.29-51.88-7.01-75.18s-32.94-40.42-58.12-48.2L160.45,78.59 C150.83,75.61,140.98,74.14,131.19,74.14z"/>
    <path class="st3" d="M235.76,370.29c-11,0-22.06-1.65-32.87-5c-28.3-8.75-51.49-27.98-65.32-54.18L69.1,181.4 c-28.54-54.07-7.77-121.27,46.3-149.81c26.19-13.83,56.2-16.63,84.49-7.88c28.3,8.75,51.49,27.98,65.32,54.18l68.47,129.72 c13.82,26.19,16.62,56.2,7.88,84.49c-8.74,28.29-27.98,51.49-54.18,65.32C271.2,365.95,253.55,370.29,235.76,370.29z M167.03,30.94 c-15.84,0-31.53,3.85-45.94,11.46c-48.11,25.39-66.59,85.19-41.19,133.3l68.47,129.72c12.3,23.31,32.94,40.43,58.12,48.21 c25.18,7.78,51.88,5.29,75.18-7.01c48.11-25.39,66.59-85.19,41.19-133.3L254.4,83.59c-12.3-23.31-32.94-40.43-58.12-48.21 C186.66,32.41,176.82,30.94,167.03,30.94z"/>
  </g>
  <g>
    <path d="M439.6,284.9c0,2.07-1.32,3.57-3.95,3.57h-10.52c-1.88,0-3.57-1.69-3.57-3.57V160.48c0-1.88,1.69-3.57,3.57-3.57h5.64 c1.5,0,2.44,0.75,3.19,2.44l1.88,4.89c1.32-1.32,9.02-9.21,22.93-9.21c20.67,0,35.9,18.04,35.9,39.66 c0,21.99-16.16,39.28-36.65,39.28c-9.77,0-17.1-4.32-18.42-5.08V284.9z M455.76,217.81c12.4,0,21.43-10.34,21.43-23.12 c0-12.59-7.89-23.3-20.67-23.3c-10.9,0-16.54,8.64-17.29,10.9v30.07C439.22,212.35,445.8,217.81,455.76,217.81z"/>
    <path d="M513.65,104.1c0-1.88,1.69-3.57,3.57-3.57h12.4c2.07,0,3.57,1.69,3.57,3.57v52.44h68.79V104.1c0-1.88,1.5-3.57,3.57-3.57 h12.4c1.88,0,3.57,1.69,3.57,3.57v124.42c0,1.88-1.69,3.57-3.57,3.57h-12.4c-2.07,0-3.57-1.69-3.57-3.57V174.2H533.2v54.32 c0,1.88-1.5,3.57-3.57,3.57h-12.4c-1.88,0-3.57-1.69-3.57-3.57V104.1z"/>
    <path d="M676.59,184.54c7.89,0,14.85,2.26,14.85,2.26c0.19-11.84-2.07-16.54-11.65-16.54c-8.65,0-17.1,2.25-21.05,3.38 c-2.26,0.56-3.57-0.94-4.13-3.01l-1.5-6.95c-0.56-2.44,0.75-3.76,2.44-4.32c1.32-0.56,12.03-4.32,25.94-4.32 c24.06,0,26.31,14.66,26.31,33.45v40.03c0,1.88-1.69,3.57-3.57,3.57h-5.26c-1.69,0-2.44-0.75-3.2-2.63l-1.88-5.08 c-4.13,3.95-11.46,9.59-23.12,9.59c-14.1,0-24.25-9.59-24.25-25.18C646.52,195.06,657.42,184.54,676.59,184.54z M674.34,220.62 c7.52,0,14.66-5.64,16.92-9.4V199.2c-1.13-0.75-6.39-3.01-13.16-3.01c-9.02,0-15.22,4.7-15.22,12.4 C662.87,215.36,667.38,220.62,674.34,220.62z"/>
    <path d="M726.96,222.31l3.95-7.33c0.75-1.5,2.82-2.07,4.7-0.94c0,0,8.27,4.89,17.48,4.89c5.64,0,9.21-2.25,9.21-6.39 c0-5.07-4.13-7.52-14.47-12.22c-11.65-5.07-21.43-12.22-21.43-24.62c0-9.4,7.71-20.67,25.75-20.67c10.53,0,18.42,3.38,22.18,5.83 c1.69,1.13,2.63,3.57,1.5,5.45l-3.38,6.39c-0.94,1.69-3.38,2.25-4.89,1.5c0,0-8.27-3.95-15.41-3.95c-6.39,0-8.46,2.82-8.46,5.64 c0,4.89,4.7,6.95,12.03,10.15c13.72,6.01,25,11.84,25,25.94c0,11.65-11.09,21.99-27.82,21.99c-12.59,0-20.86-4.51-24.81-7.71 C726.96,225.51,726.21,223.82,726.96,222.31z"/>
    <path d="M798.75,104.1c0-1.88,1.69-3.57,3.57-3.57h10.9c1.88,0,3.57,1.69,3.57,3.57v59.01c1.88-1.32,10.52-8.08,22.55-8.08 c21.24,0,31.39,15.22,31.39,35.71v37.78c0,1.88-1.69,3.57-3.57,3.57h-10.52c-2.07,0-3.57-1.69-3.57-3.57v-38.15 c0-12.22-6.2-18.98-15.97-18.98c-11.46,0-19.36,8.64-20.3,11.84v45.29c0,2.07-1.32,3.57-3.76,3.57h-10.71 c-1.88,0-3.57-1.69-3.57-3.57V104.1z"/>
  </g>
</svg>